<mxfile host="app.diagrams.net" modified="2024-07-01T01:35:05.168Z" agent="Mozilla/5.0 (Macintosh; Intel Mac OS X 10_15_7) AppleWebKit/537.36 (KHTML, like Gecko) Chrome/126.0.0.0 Safari/537.36" version="24.6.4" etag="J-dGMXyoTAW-OxLWjVWb" type="github">
  <diagram name="PÃ¡gina-1" id="kpKFux1hq5gK3FjSrQra">
    <mxGraphModel>
      <root>
        <mxCell id="0" />
        <mxCell id="1" parent="0" />
      </root>
    </mxGraphModel>
  </diagram>
</mxfile>
